<?xml version="1.0" encoding="UTF-8"?>
<svg width="700pt" height="700pt" version="1.1" viewBox="0 0 700 700" xmlns="http://www.w3.org/2000/svg" xmlns:xlink="http://www.w3.org/1999/xlink">
 <defs>
  <symbol id="u" overflow="visible">
   <path d="m20.812-1.25c-1.0742 0.5625-2.1953 0.98438-3.3594 1.2656-1.1562 0.28125-2.3711 0.42188-3.6406 0.42188-3.7734 0-6.7617-1.0508-8.9688-3.1562-2.1992-2.1133-3.2969-4.9727-3.2969-8.5781 0-3.625 1.0977-6.4883 3.2969-8.5938 2.207-2.1016 5.1953-3.1562 8.9688-3.1562 1.2695 0 2.4844 0.14062 3.6406 0.42188 1.1641 0.28125 2.2852 0.69922 3.3594 1.25v4.6875c-1.0859-0.73828-2.1523-1.2812-3.2031-1.625-1.0547-0.34375-2.1641-0.51562-3.3281-0.51562-2.0859 0-3.7266 0.67188-4.9219 2.0156-1.1875 1.3359-1.7812 3.1719-1.7812 5.5156 0 2.3359 0.59375 4.168 1.7812 5.5 1.1953 1.3359 2.8359 2 4.9219 2 1.1641 0 2.2734-0.17188 3.3281-0.51562 1.0508-0.34375 2.1172-0.88281 3.2031-1.625z"/>
  </symbol>
  <symbol id="d" overflow="visible">
   <path d="m15.234-12.359c-0.48047-0.21875-0.95312-0.37891-1.4219-0.48438-0.46875-0.11328-0.94531-0.17188-1.4219-0.17188-1.3984 0-2.4766 0.44922-3.2344 1.3438-0.75 0.89844-1.125 2.1797-1.125 3.8438v7.8281h-5.4219v-16.984h5.4219v2.7812c0.69531-1.1016 1.5-1.9102 2.4062-2.4219 0.90625-0.50781 1.9922-0.76562 3.2656-0.76562 0.17578 0 0.36719 0.011719 0.57812 0.03125 0.21875 0.011719 0.53125 0.039063 0.9375 0.078125z"/>
  </symbol>
  <symbol id="a" overflow="visible">
   <path d="m19.562-8.5469v1.5625h-12.688c0.125 1.2734 0.58203 2.2266 1.375 2.8594 0.78906 0.63672 1.8945 0.95312 3.3125 0.95312 1.1328 0 2.3008-0.16406 3.5-0.5 1.1953-0.34375 2.4297-0.85938 3.7031-1.5469v4.1875c-1.293 0.49219-2.5781 0.85547-3.8594 1.0938-1.2812 0.25-2.5625 0.375-3.8438 0.375-3.0742 0-5.4648-0.78125-7.1719-2.3438-1.7109-1.5625-2.5625-3.7539-2.5625-6.5781 0-2.7695 0.83594-4.9453 2.5156-6.5312 1.6758-1.582 3.9766-2.375 6.9062-2.375 2.6641 0 4.8008 0.80469 6.4062 2.4062 1.6016 1.6055 2.4062 3.75 2.4062 6.4375zm-5.5781-1.7969c0-1.0312-0.30469-1.8594-0.90625-2.4844-0.60547-0.63281-1.3906-0.95312-2.3594-0.95312-1.0547 0-1.9062 0.29688-2.5625 0.89062-0.65625 0.58594-1.0625 1.4336-1.2188 2.5469z"/>
  </symbol>
  <symbol id="c" overflow="visible">
   <path d="m10.219-7.6406c-1.125 0-1.9766 0.19531-2.5469 0.57812-0.57422 0.38672-0.85938 0.94922-0.85938 1.6875 0 0.6875 0.22656 1.2305 0.6875 1.625 0.45703 0.38672 1.0977 0.57812 1.9219 0.57812 1.0195 0 1.8789-0.36328 2.5781-1.0938 0.69531-0.73828 1.0469-1.6562 1.0469-2.75v-0.625zm8.2969-2.0469v9.6875h-5.4688v-2.5156c-0.73047 1.0312-1.5547 1.7812-2.4688 2.25-0.90625 0.46875-2.0117 0.70312-3.3125 0.70312-1.7617 0-3.1953-0.50781-4.2969-1.5312-1.0938-1.0312-1.6406-2.3633-1.6406-4 0-1.9883 0.67969-3.4453 2.0469-4.375 1.375-0.9375 3.5312-1.4062 6.4688-1.4062h3.2031v-0.42188c0-0.86328-0.33984-1.4922-1.0156-1.8906-0.67969-0.39453-1.7344-0.59375-3.1719-0.59375-1.168 0-2.25 0.11719-3.25 0.34375-1 0.23047-1.9297 0.57812-2.7812 1.0469v-4.1406c1.1562-0.28125 2.3164-0.49219 3.4844-0.64062 1.1758-0.14453 2.3516-0.21875 3.5312-0.21875 3.0625 0 5.2695 0.60547 6.625 1.8125 1.3633 1.2109 2.0469 3.1719 2.0469 5.8906z"/>
  </symbol>
  <symbol id="b" overflow="visible">
   <path d="m8.5469-21.812v4.8281h5.5938v3.875h-5.5938v7.2031c0 0.79297 0.15625 1.3281 0.46875 1.6094 0.3125 0.27344 0.92969 0.40625 1.8594 0.40625h2.7969v3.8906h-4.6562c-2.1484 0-3.668-0.44531-4.5625-1.3438-0.89844-0.89453-1.3438-2.4141-1.3438-4.5625v-7.2031h-2.7031v-3.875h2.7031v-4.8281z"/>
  </symbol>
  <symbol id="i" overflow="visible">
   <path d="m14.172-14.5v-9.0938h5.4531v23.594h-5.4531v-2.4531c-0.75 1-1.5781 1.7344-2.4844 2.2031-0.89844 0.45703-1.9375 0.6875-3.125 0.6875-2.0859 0-3.8047-0.82812-5.1562-2.4844-1.3438-1.6641-2.0156-3.8125-2.0156-6.4375 0-2.6133 0.67188-4.75 2.0156-6.4062 1.3516-1.6641 3.0703-2.5 5.1562-2.5 1.1758 0 2.2188 0.23438 3.125 0.70312s1.7344 1.1992 2.4844 2.1875zm-3.5781 11c1.1562 0 2.0391-0.42188 2.6562-1.2656 0.61328-0.85156 0.92188-2.0938 0.92188-3.7188 0-1.6133-0.30859-2.8438-0.92188-3.6875-0.61719-0.85156-1.5-1.2812-2.6562-1.2812s-2.043 0.42969-2.6562 1.2812c-0.61719 0.84375-0.92188 2.0742-0.92188 3.6875 0 1.625 0.30469 2.8672 0.92188 3.7188 0.61328 0.84375 1.5 1.2656 2.6562 1.2656z"/>
  </symbol>
  <symbol id="h" overflow="visible">
   <path d="m11.656-3.5c1.1562 0 2.0391-0.42188 2.6562-1.2656 0.61328-0.85156 0.92188-2.0938 0.92188-3.7188 0-1.6133-0.30859-2.8438-0.92188-3.6875-0.61719-0.85156-1.5-1.2812-2.6562-1.2812-1.168 0-2.0625 0.42969-2.6875 1.2812-0.625 0.85547-0.9375 2.0859-0.9375 3.6875 0 1.6172 0.3125 2.8516 0.9375 3.7031 0.625 0.85547 1.5195 1.2812 2.6875 1.2812zm-3.625-11c0.75-0.98828 1.5781-1.7188 2.4844-2.1875 0.91406-0.46875 1.9688-0.70312 3.1562-0.70312 2.0938 0 3.8125 0.83594 5.1562 2.5 1.3438 1.6562 2.0156 3.793 2.0156 6.4062 0 2.625-0.67188 4.7734-2.0156 6.4375-1.3438 1.6562-3.0625 2.4844-5.1562 2.4844-1.1875 0-2.2422-0.23438-3.1562-0.70312-0.90625-0.46875-1.7344-1.1953-2.4844-2.1875v2.4531h-5.4219v-23.594h5.4219z"/>
  </symbol>
  <symbol id="g" overflow="visible">
   <path d="m0.375-16.984h5.4375l4.5625 11.531 3.875-11.531h5.4375l-7.1406 18.594c-0.71875 1.8828-1.5586 3.2031-2.5156 3.9531-0.96094 0.75781-2.2188 1.1406-3.7812 1.1406h-3.1406v-3.5625h1.7031c0.91406 0 1.582-0.14844 2-0.4375 0.42578-0.29297 0.75391-0.82031 0.98438-1.5781l0.15625-0.46875z"/>
  </symbol>
  <symbol id="f" overflow="visible">
   <path d="m2.8438-22.641h5.8438v18.234h10.25v4.4062h-16.094z"/>
  </symbol>
  <symbol id="t" overflow="visible">
   <path d="m2.6094-23.594h5.4219v23.594h-5.4219z"/>
  </symbol>
  <symbol id="s" overflow="visible">
   <path d="m18.609-21.938v4.7969c-1.2422-0.55078-2.4531-0.96875-3.6406-1.25-1.1797-0.28906-2.293-0.4375-3.3438-0.4375-1.3984 0-2.4336 0.19531-3.1094 0.57812-0.66797 0.38672-1 0.98438-1 1.7969 0 0.60547 0.22266 1.0781 0.67188 1.4219 0.45703 0.33594 1.2734 0.62109 2.4531 0.85938l2.5 0.5c2.5078 0.51172 4.2969 1.2812 5.3594 2.3125s1.5938 2.4961 1.5938 4.3906c0 2.5-0.74219 4.3594-2.2188 5.5781-1.4805 1.2188-3.7422 1.8281-6.7812 1.8281-1.4375 0-2.8828-0.13672-4.3281-0.40625-1.4492-0.26953-2.8984-0.67578-4.3438-1.2188v-4.9219c1.4453 0.77344 2.8438 1.3516 4.1875 1.7344 1.3516 0.38672 2.6602 0.57812 3.9219 0.57812 1.2695 0 2.2422-0.20703 2.9219-0.625 0.67578-0.42578 1.0156-1.0352 1.0156-1.8281 0-0.70703-0.23047-1.2539-0.6875-1.6406-0.46094-0.38281-1.375-0.72656-2.75-1.0312l-2.2656-0.5c-2.2617-0.47656-3.918-1.25-4.9688-2.3125-1.043-1.0625-1.5625-2.4922-1.5625-4.2969 0-2.2578 0.72266-3.9922 2.1719-5.2031 1.457-1.207 3.5508-1.8125 6.2812-1.8125 1.25 0 2.5312 0.09375 3.8438 0.28125 1.3125 0.17969 2.6719 0.45312 4.0781 0.82812z"/>
  </symbol>
  <symbol id="r" overflow="visible">
   <path d="m13.781-23.594v3.5625h-3c-0.77344 0-1.3086 0.14062-1.6094 0.42188-0.30469 0.27344-0.45312 0.75-0.45312 1.4375v1.1875h4.6406v3.875h-4.6406v13.109h-5.4219v-13.109h-2.7031v-3.875h2.7031v-1.1875c0-1.8516 0.51562-3.2188 1.5469-4.0938 1.0312-0.88281 2.625-1.3281 4.7812-1.3281z"/>
  </symbol>
  <symbol id="e" overflow="visible">
   <path d="m10.688-13.516c-1.1992 0-2.1172 0.43359-2.75 1.2969-0.63672 0.86719-0.95312 2.1094-0.95312 3.7344 0 1.6367 0.31641 2.8867 0.95312 3.75 0.63281 0.86719 1.5508 1.2969 2.75 1.2969 1.1875 0 2.0938-0.42969 2.7188-1.2969 0.625-0.86328 0.9375-2.1133 0.9375-3.75 0-1.625-0.3125-2.8672-0.9375-3.7344-0.625-0.86328-1.5312-1.2969-2.7188-1.2969zm0-3.875c2.9258 0 5.207 0.78906 6.8438 2.3594 1.6445 1.5742 2.4688 3.7578 2.4688 6.5469 0 2.793-0.82422 4.9805-2.4688 6.5625-1.6367 1.5742-3.918 2.3594-6.8438 2.3594-2.9297 0-5.2188-0.78516-6.875-2.3594-1.6562-1.582-2.4844-3.7695-2.4844-6.5625 0-2.7891 0.82812-4.9727 2.4844-6.5469 1.6562-1.5703 3.9453-2.3594 6.875-2.3594z"/>
  </symbol>
  <symbol id="q" overflow="visible">
   <path d="m18.359-14.172c0.6875-1.0508 1.5-1.8477 2.4375-2.3906 0.94531-0.55078 1.9883-0.82812 3.125-0.82812 1.9453 0 3.4297 0.60547 4.4531 1.8125 1.0195 1.1992 1.5312 2.9453 1.5312 5.2344v10.344h-5.4531v-8.8594c0.007813-0.13281 0.015625-0.26953 0.015625-0.40625 0.007812-0.14453 0.015625-0.34766 0.015625-0.60938 0-1.1953-0.17969-2.0664-0.53125-2.6094-0.35547-0.53906-0.92969-0.8125-1.7188-0.8125-1.0312 0-1.8281 0.42969-2.3906 1.2812-0.5625 0.84375-0.85547 2.0703-0.875 3.6719v8.3438h-5.4531v-8.8594c0-1.875-0.16406-3.082-0.48438-3.625-0.32422-0.53906-0.90234-0.8125-1.7344-0.8125-1.043 0-1.8516 0.42969-2.4219 1.2812-0.5625 0.85547-0.84375 2.0742-0.84375 3.6562v8.3594h-5.4531v-16.984h5.4531v2.4844c0.67578-0.95703 1.4453-1.6758 2.3125-2.1562 0.86328-0.48828 1.8164-0.73438 2.8594-0.73438 1.1641 0 2.1953 0.28125 3.0938 0.84375 0.90625 0.5625 1.5938 1.3555 2.0625 2.375z"/>
  </symbol>
  <symbol id="p" overflow="visible">
   <path d="m19.688-10.344v10.344h-5.4531v-7.8906c0-1.4766-0.039063-2.4922-0.10938-3.0469-0.0625-0.5625-0.17969-0.97266-0.34375-1.2344-0.21094-0.35156-0.49609-0.62891-0.85938-0.82812-0.36719-0.19531-0.78125-0.29688-1.25-0.29688-1.125 0-2.0156 0.4375-2.6719 1.3125-0.64844 0.875-0.96875 2.0859-0.96875 3.625v8.3594h-5.4219v-23.594h5.4219v9.0938c0.82031-0.98828 1.6914-1.7188 2.6094-2.1875 0.92578-0.46875 1.9453-0.70312 3.0625-0.70312 1.957 0 3.4414 0.60547 4.4531 1.8125 1.0195 1.1992 1.5312 2.9453 1.5312 5.2344z"/>
  </symbol>
  <symbol id="o" overflow="visible">
   <path d="m2.8438-22.641h6.5312l8.2344 15.531v-15.531h5.5312v22.641h-6.5156l-8.2344-15.531v15.531h-5.5469z"/>
  </symbol>
  <symbol id="n" overflow="visible">
   <path d="m2.4219-6.6094v-10.375h5.4688v1.7031c0 0.91797-0.007813 2.0742-0.015625 3.4688-0.011719 1.3867-0.015625 2.3086-0.015625 2.7656 0 1.375 0.03125 2.3672 0.09375 2.9688 0.070313 0.59375 0.19531 1.0273 0.375 1.2969 0.21875 0.35547 0.50391 0.63281 0.85938 0.82812 0.36328 0.1875 0.78125 0.28125 1.25 0.28125 1.1328 0 2.0234-0.42969 2.6719-1.2969 0.64453-0.875 0.96875-2.082 0.96875-3.625v-8.3906h5.4219v16.984h-5.4219v-2.4531c-0.82422 0.99219-1.6953 1.7188-2.6094 2.1875-0.91797 0.46875-1.9219 0.70312-3.0156 0.70312-1.9688 0-3.4688-0.59766-4.5-1.7969-1.0234-1.207-1.5312-2.957-1.5312-5.25z"/>
  </symbol>
  <symbol id="m" overflow="visible">
   <path d="m19.688-10.344v10.344h-5.4531v-7.9219c0-1.457-0.039063-2.4609-0.10938-3.0156-0.0625-0.5625-0.17969-0.97266-0.34375-1.2344-0.21094-0.35156-0.49609-0.62891-0.85938-0.82812-0.36719-0.19531-0.78125-0.29688-1.25-0.29688-1.125 0-2.0156 0.4375-2.6719 1.3125-0.64844 0.875-0.96875 2.0859-0.96875 3.625v8.3594h-5.4219v-16.984h5.4219v2.4844c0.82031-0.98828 1.6914-1.7188 2.6094-2.1875 0.92578-0.46875 1.9453-0.70312 3.0625-0.70312 1.957 0 3.4414 0.60547 4.4531 1.8125 1.0195 1.1992 1.5312 2.9453 1.5312 5.2344z"/>
  </symbol>
  <symbol id="l" overflow="visible">
   <path d="m2.8438-22.641h9.7031c2.875 0 5.082 0.64062 6.625 1.9219 1.5391 1.2734 2.3125 3.0898 2.3125 5.4531 0 2.3867-0.77344 4.2188-2.3125 5.5-1.543 1.2734-3.75 1.9062-6.625 1.9062h-3.8594v7.8594h-5.8438zm5.8438 4.2344v6.3125h3.2344c1.1328 0 2.0078-0.26953 2.625-0.8125 0.61328-0.55078 0.92188-1.3359 0.92188-2.3594 0-1.0078-0.30859-1.7852-0.92188-2.3281-0.61719-0.53906-1.4922-0.8125-2.625-0.8125z"/>
  </symbol>
  <symbol id="k" overflow="visible">
   <path d="m2.6094-16.984h5.4219v16.688c0 2.2695-0.54688 4.0039-1.6406 5.2031-1.0859 1.1953-2.6641 1.7969-4.7344 1.7969h-2.6875v-3.5625h0.9375c1.0312 0 1.7383-0.23438 2.125-0.70312 0.38281-0.46094 0.57812-1.3711 0.57812-2.7344zm0-6.6094h5.4219v4.4219h-5.4219z"/>
  </symbol>
  <symbol id="j" overflow="visible">
   <path d="m16.328-16.453v4.4219c-0.73047-0.5-1.4688-0.86719-2.2188-1.1094-0.74219-0.25-1.5117-0.375-2.3125-0.375-1.5117 0-2.6953 0.44531-3.5469 1.3281-0.84375 0.88672-1.2656 2.1211-1.2656 3.7031 0 1.5938 0.42188 2.8359 1.2656 3.7188 0.85156 0.88672 2.0352 1.3281 3.5469 1.3281 0.85156 0 1.6602-0.125 2.4219-0.375 0.75781-0.25781 1.4609-0.63281 2.1094-1.125v4.4375c-0.84375 0.3125-1.7031 0.54688-2.5781 0.70312s-1.75 0.23438-2.625 0.23438c-3.0742 0-5.4766-0.78516-7.2031-2.3594-1.7305-1.5703-2.5938-3.7578-2.5938-6.5625 0-2.8008 0.86328-4.9844 2.5938-6.5469 1.7266-1.5703 4.1289-2.3594 7.2031-2.3594 0.88281 0 1.7578 0.078125 2.625 0.23438 0.86328 0.15625 1.7227 0.39062 2.5781 0.70312z"/>
  </symbol>
 </defs>
 <g>
  <path d="m444.52 476.88c0-2.1172-1.0547-3.9883-2.6719-5.1016l-42.699-41.766c0.007812-0.082031 0.050781-0.13672 0.050781-0.22266 0-0.60156-0.082031-1.168-0.23438-1.7031l-11.867-154.15h44.414 0.12891c3.4375 0 6.2109-2.7695 6.2109-6.2109 0-0.82812-0.15625-1.6094-0.44922-2.3242l-5.9961-32.27c-0.54688-2.9492-3.1172-5.0742-6.1016-5.0742h-18.941v-1.4023c2.9375-23.293-3.8633-48.074-18.469-66.152-6.1211-7.5781-13.098-13.152-20.457-16.633 4.0898-4.3125 6.6406-10.113 6.6406-16.52 0-13.277-10.793-24.074-24.074-24.074-13.277 0-24.074 10.797-24.074 24.074 0 6.4609 2.5898 12.309 6.7461 16.645-6.5586 3.2227-12.809 8.1562-18.352 14.781-14.984 17.867-22.676 43.844-20.453 67.848-0.023438 0.007812 0.074219 0.96875 0 1.4336h-20.09c-2.9883 0-5.5664 2.1367-6.1055 5.0742l-6.2109 33.469c-0.33594 1.8125 0.14844 3.6914 1.3359 5.1055 1.1758 1.4219 2.9336 2.2305 4.7773 2.2305h44.422l-11.973 155.39c-0.039062 0.45312 0.11328 0.90234 0.17578 1.3555l-42.723 41.785c-1.5664 1.5273-2.125 3.7539-1.6406 5.832l6.1953 39.645c0.47266 3.0195 3.0742 5.25 6.1328 5.25h163.68c3.0547 0 5.6602-2.2188 6.1328-5.25l6.0273-38.574c0.32422-0.77344 0.51172-1.6094 0.51172-2.4883zm-94.516-361.2c6.4258 0 11.648 5.2266 11.648 11.648 0 6.4258-5.2266 11.648-11.648 11.648-6.4258 0-11.648-5.2266-11.648-11.648 0-6.4258 5.2266-11.648 11.648-11.648zm-26.152 51.047c7.8906-9.4062 17.184-14.586 26.16-14.586 8.8594 0 17.898 4.7422 25.758 13.344l-30.324 32.586c-2.3359 2.5156-2.1992 6.4414 0.31641 8.7852 1.1992 1.1172 2.7227 1.6719 4.2383 1.6719 1.6641 0 3.3242-0.66406 4.5469-1.9766l28.758-30.914c9.0156 14.828 13.004 33.547 10.543 50.75h-87.504c-2.1641-20.844 4.5781-44.258 17.508-59.66zm-44.906 73.734h141.2l3.9023 21.043-149-0.003906zm34.094 181.61 11.352-147.39h50.305l11.344 147.39zm-0.53125 13.938h74.988l35.449 34.668-145.89-0.003906zm114.02 74.754h-153.05l-4.2695-27.266h161.58z"/>
  <use x="71.597656" y="653.1875" xlink:href="#u"/>
  <use x="94.394531" y="653.1875" xlink:href="#d"/>
  <use x="109.710938" y="653.1875" xlink:href="#a"/>
  <use x="130.78125" y="653.1875" xlink:href="#c"/>
  <use x="151.742188" y="653.1875" xlink:href="#b"/>
  <use x="166.589844" y="653.1875" xlink:href="#a"/>
  <use x="187.660156" y="653.1875" xlink:href="#i"/>
  <use x="220.707031" y="653.1875" xlink:href="#h"/>
  <use x="242.945312" y="653.1875" xlink:href="#g"/>
  <use x="274.007812" y="653.1875" xlink:href="#f"/>
  <use x="293.800781" y="653.1875" xlink:href="#a"/>
  <use x="314.867187" y="653.1875" xlink:href="#t"/>
  <use x="325.515625" y="653.1875" xlink:href="#a"/>
  <use x="357.398437" y="653.1875" xlink:href="#s"/>
  <use x="379.769531" y="653.1875" xlink:href="#c"/>
  <use x="400.730469" y="653.1875" xlink:href="#c"/>
  <use x="71.597656" y="684.253906" xlink:href="#r"/>
  <use x="85.109375" y="684.253906" xlink:href="#d"/>
  <use x="100.429687" y="684.253906" xlink:href="#e"/>
  <use x="121.769531" y="684.253906" xlink:href="#q"/>
  <use x="164.953125" y="684.253906" xlink:href="#b"/>
  <use x="179.800781" y="684.253906" xlink:href="#p"/>
  <use x="201.917969" y="684.253906" xlink:href="#a"/>
  <use x="233.796875" y="684.253906" xlink:href="#o"/>
  <use x="259.796875" y="684.253906" xlink:href="#e"/>
  <use x="281.136719" y="684.253906" xlink:href="#n"/>
  <use x="303.25" y="684.253906" xlink:href="#m"/>
  <use x="336.179687" y="684.253906" xlink:href="#l"/>
  <use x="358.945312" y="684.253906" xlink:href="#d"/>
  <use x="374.265625" y="684.253906" xlink:href="#e"/>
  <use x="395.605469" y="684.253906" xlink:href="#k"/>
  <use x="406.253906" y="684.253906" xlink:href="#a"/>
  <use x="427.320312" y="684.253906" xlink:href="#j"/>
  <use x="445.734375" y="684.253906" xlink:href="#b"/>
 </g>
</svg>
